<?xml version="1.0" standalone="no"?>
<!DOCTYPE svg PUBLIC "-//W3C//DTD SVG 20010904//EN"
 "http://www.w3.org/TR/2001/REC-SVG-20010904/DTD/svg10.dtd">
<svg version="1.0" xmlns="http://www.w3.org/2000/svg"
 width="270.000000pt" height="270.000000pt" viewBox="0 0 270.000000 270.000000"
 preserveAspectRatio="xMidYMid meet">
<metadata>
Created by potrace 1.14, written by Peter Selinger 2001-2017
</metadata>
<g transform="translate(0.000000,270.000000) scale(0.100000,-0.100000)"
fill="#000000" stroke="none">
<path d="M2134 2591 l-201 -107 -114 31 -114 31 -110 -27 c-60 -15 -118 -30
-127 -34 -12 -5 -67 19 -165 71 -241 128 -262 138 -267 133 -3 -2 4 -63 15
-134 11 -72 20 -142 21 -156 0 -14 -40 -118 -90 -230 -50 -112 -92 -210 -94
-217 -2 -8 21 -23 57 -38 33 -13 69 -28 80 -33 11 -5 101 -42 200 -82 99 -39
183 -74 187 -78 3 -3 -25 -55 -63 -116 -38 -60 -72 -117 -76 -125 -3 -8 -21
-37 -38 -65 -99 -152 -112 -182 -140 -302 -35 -154 -47 -194 -56 -191 -4 2
-122 96 -262 211 -141 114 -263 210 -271 213 -13 5 -32 -28 -91 -151 -41 -86
-75 -158 -75 -160 0 -2 -36 -79 -81 -172 -96 -198 -101 -211 -89 -215 7 -3
134 -124 548 -524 l125 -121 550 1 549 1 18 60 c18 60 106 392 115 430 5 24
149 573 174 666 l18 65 -26 50 c-15 27 -45 81 -68 119 -22 39 -50 86 -61 105
-11 19 -43 75 -71 124 -29 49 -48 92 -44 97 4 4 123 53 263 109 140 57 258
106 263 109 4 4 -47 103 -112 221 -66 117 -118 216 -117 219 4 6 11 58 21 146
3 28 8 57 10 65 7 23 17 110 13 109 -2 0 -93 -48 -204 -108z m-923 -23 c63
-33 129 -68 147 -76 17 -9 32 -19 32 -22 0 -5 -256 -71 -276 -70 -6 0 -15 28
-19 63 -10 84 -12 96 -20 140 -9 45 -17 47 136 -35z m1084 25 c-4 -27 -8 -55
-10 -63 -2 -8 -7 -42 -11 -75 -3 -33 -7 -61 -8 -63 -2 -1 -16 2 -32 7 -28 9
-76 22 -198 56 l-58 16 48 26 c89 48 269 142 272 143 1 0 0 -21 -3 -47z m-475
-117 c8 -2 40 -11 70 -20 74 -21 202 -55 274 -72 32 -8 62 -17 67 -19 9 -6 -8
-23 -313 -333 -116 -117 -214 -212 -219 -210 -4 2 -94 85 -198 186 -105 101
-229 221 -278 267 -48 46 -85 86 -83 88 4 4 345 92 395 103 11 2 54 12 95 22
67 17 80 17 125 5 28 -8 57 -15 65 -17z m-460 -376 c117 -113 229 -220 249
-239 l36 -34 -30 7 c-49 11 -358 96 -385 106 -14 5 -80 23 -147 42 -68 18
-123 38 -123 43 0 9 122 294 135 315 3 6 16 0 29 -13 13 -12 119 -114 236
-227z m957 160 c16 -30 54 -97 83 -148 29 -51 51 -94 49 -95 -2 -2 -130 -38
-284 -81 -154 -43 -309 -86 -343 -96 -35 -10 -62 -17 -60 -15 1 2 115 119 252
260 198 203 252 253 262 243 6 -7 25 -38 41 -68z m-1282 -299 c246 -69 513
-143 565 -157 36 -9 69 -20 73 -24 10 -9 -62 -90 -80 -90 -12 0 -653 257 -662
265 -2 2 -1 11 2 19 5 12 13 13 34 7 15 -5 46 -14 68 -20z m1157 -124 c-163
-65 -311 -125 -329 -133 -17 -8 -35 -14 -40 -14 -4 0 -29 20 -55 45 l-48 44
53 15 c52 15 373 104 457 127 53 14 42 12 150 42 75 21 86 22 97 8 11 -12 -28
-31 -285 -134z m-490 -227 c14 0 219 80 234 92 7 5 17 1 26 -10 21 -25 258
-438 258 -450 0 -5 -116 -38 -257 -74 l-258 -64 -75 18 c-41 10 -156 36 -255
58 -99 22 -188 44 -197 48 -14 6 5 43 128 244 l145 237 120 -50 c66 -27 125
-49 131 -49z m-64 -522 l52 -11 0 -523 0 -522 -58 2 c-31 1 -63 5 -69 9 -7 4
-19 29 -27 55 -15 49 -58 173 -221 647 -126 365 -155 448 -155 450 0 1 96 -20
213 -47 116 -26 236 -53 265 -60z m578 80 c-10 -47 -12 -52 -41 -161 -15 -54
-28 -106 -30 -115 -2 -9 -11 -44 -20 -77 -19 -69 -51 -190 -94 -355 -16 -63
-48 -184 -70 -269 -23 -84 -41 -154 -41 -155 0 -1 -43 -2 -95 -2 -76 1 -96 4
-99 16 -2 8 -3 242 -3 520 l2 505 240 62 c132 34 244 62 249 62 5 1 5 -14 2
-31z m-1041 -113 c15 -44 68 -197 117 -340 49 -143 98 -285 108 -315 10 -30
41 -122 69 -203 28 -82 51 -151 51 -155 0 -4 -146 -7 -325 -7 -179 0 -325 2
-325 5 0 3 9 43 21 90 11 47 22 92 24 100 11 46 72 299 110 455 88 361 105
435 105 452 0 31 17 0 45 -82z m-366 -105 c207 -54 233 -63 226 -83 -5 -13
-74 -299 -81 -332 -15 -73 -113 -467 -118 -472 -3 -3 -56 44 -118 104 -62 61
-180 175 -262 254 -82 79 -174 168 -205 198 l-54 54 39 35 c77 69 219 198 277
250 45 41 64 52 80 48 12 -3 109 -29 216 -56z"/>
</g>
</svg>
